<?xml version="1.0" standalone="no"?>
<!DOCTYPE svg PUBLIC "-//W3C//DTD SVG 20010904//EN"
 "http://www.w3.org/TR/2001/REC-SVG-20010904/DTD/svg10.dtd">
<svg version="1.0" xmlns="http://www.w3.org/2000/svg"
 width="480.000000pt" height="480.000000pt" viewBox="0 0 480.000000 480.000000"
 preserveAspectRatio="xMidYMid meet">
<metadata>
Created by potrace 1.11, written by Peter Selinger 2001-2013
</metadata>
<g transform="translate(0.000000,480.000000) scale(0.100000,-0.100000)"
fill="#000000" stroke="none">
<path d="M2335 4472 c-18 -13 -11 -37 14 -51 32 -18 139 -26 171 -13 19 8 9 9
-41 5 -69 -6 -109 6 -109 32 0 8 8 19 18 24 14 9 12 10 -13 11 -16 0 -34 -4
-40 -8z"/>
<path d="M2588 4470 c28 -12 38 -36 22 -55 -17 -20 4 -20 24 1 27 26 -6 65
-52 63 -12 0 -10 -3 6 -9z"/>
<path d="M2288 4463 c-23 -6 -23 -33 -1 -33 9 0 13 3 10 7 -4 3 -2 12 4 20 6
7 10 12 8 12 -2 -1 -12 -3 -21 -6z"/>
<path d="M2668 4454 c37 -26 28 -52 -25 -77 -39 -17 -69 -22 -156 -24 -65 -1
-105 2 -102 8 4 5 -3 9 -14 9 -12 0 -21 4 -21 10 0 5 -16 17 -36 25 -45 18
-45 18 -38 0 4 -8 2 -15 -4 -15 -5 0 -15 7 -22 15 -7 8 -9 15 -4 15 4 0 3 5
-3 11 -14 14 -57 -8 -95 -48 -57 -60 -73 -147 -42 -234 17 -46 14 -79 -6 -79
-8 0 -7 7 0 23 11 21 10 21 -4 3 -22 -27 -22 -146 0 -187 12 -24 13 -34 3 -45
-7 -9 -9 -29 -5 -57 4 -23 8 -51 10 -63 6 -39 16 -47 38 -27 20 18 21 17 10
-2 -5 -11 -103 -111 -216 -223 -113 -111 -214 -218 -223 -236 -10 -19 -54 -64
-98 -101 -44 -36 -80 -72 -80 -79 0 -21 -27 -47 -41 -42 -8 3 -13 0 -11 -7 1
-7 -4 -11 -10 -9 -7 1 -13 -5 -13 -15 0 -9 -3 -13 -6 -10 -11 11 -144 -132
-144 -154 0 -11 -4 -18 -9 -15 -5 3 -45 -36 -89 -87 -45 -50 -92 -104 -106
-118 -14 -15 -22 -30 -18 -35 4 -4 2 -4 -5 -1 -14 9 -55 -41 -46 -56 3 -5 1
-7 -5 -3 -6 3 -21 -7 -34 -24 -13 -16 -51 -59 -85 -94 -34 -36 -69 -78 -78
-93 -9 -15 -43 -47 -74 -71 -90 -68 -232 -214 -273 -283 -67 -111 -81 -159
-86 -306 -4 -114 -1 -141 17 -202 41 -134 155 -271 316 -379 83 -56 115 -80
175 -136 113 -104 215 -175 334 -231 31 -15 70 -38 86 -52 17 -14 30 -21 30
-17 0 4 8 1 18 -7 37 -32 260 -120 380 -151 34 -8 94 -25 127 -34 11 -3 31 -7
45 -9 14 -1 63 -10 110 -18 275 -50 689 -34 1025 39 110 23 316 100 429 159
251 131 342 186 338 203 -2 14 123 132 140 132 4 0 14 16 22 35 13 30 73 81
84 70 7 -6 -69 -83 -155 -158 -46 -39 -81 -73 -78 -75 5 -5 92 60 137 101 13
12 67 54 119 93 228 173 333 324 376 542 14 71 15 94 4 155 -7 40 -16 95 -21
122 -18 109 -68 206 -155 303 -70 77 -92 82 -31 7 55 -67 71 -95 55 -95 -6 0
-9 -7 -5 -15 9 -25 -2 -17 -17 11 -13 24 -13 19 -9 -54 6 -106 -15 -166 -94
-273 -106 -141 -327 -279 -589 -367 -181 -61 -275 -89 -322 -97 -24 -4 -46
-12 -50 -19 -9 -14 -89 -37 -125 -35 -23 1 -23 1 2 10 18 6 12 7 -20 3 -59 -7
-99 -13 -130 -19 -40 -8 -200 -25 -265 -29 -348 -19 -464 -17 -760 15 -211 22
-458 76 -590 129 -132 53 -190 74 -208 77 -46 7 -167 83 -252 157 -16 14 -33
26 -38 26 -11 0 -101 98 -133 145 -44 64 -74 168 -42 149 11 -7 9 28 -7 104
-5 19 -4 32 2 32 6 0 13 -23 16 -51 6 -49 37 -113 102 -211 38 -57 239 -225
280 -234 17 -3 48 -15 70 -25 65 -29 183 -69 285 -96 52 -14 136 -36 185 -49
50 -13 117 -26 150 -28 33 -3 80 -10 105 -16 61 -15 183 -30 252 -31 32 0 60
-4 62 -7 8 -13 577 -6 679 8 53 7 97 17 97 21 0 4 15 7 33 6 66 -1 247 34 304
59 17 8 62 20 100 28 92 19 102 22 148 41 22 10 87 34 145 54 60 21 117 48
133 63 15 14 42 32 60 39 81 33 297 221 332 289 23 44 45 126 45 166 0 48 -39
164 -54 164 -8 0 -17 7 -20 16 -3 8 -2 12 4 9 6 -3 7 1 4 10 -4 9 -13 14 -20
11 -8 -3 -22 9 -34 27 l-22 32 27 -30 27 -30 -18 34 c-11 18 -34 45 -51 58
-18 14 -31 29 -28 33 2 4 -5 16 -18 26 -21 19 -21 19 -7 -1 15 -20 14 -20 -8
-1 -23 20 -30 32 -12 21 18 -11 10 5 -15 33 -21 22 -25 23 -20 7 6 -17 3 -16
-14 5 -20 24 -25 36 -22 53 3 16 -92 136 -102 130 -6 -3 -7 -1 -4 4 10 16
-129 157 -145 147 -10 -6 -11 -5 -1 7 11 13 1 27 -60 85 -39 38 -111 110 -158
159 -87 90 -163 161 -101 94 72 -79 14 -39 -85 58 -36 35 -53 59 -53 76 0 27
-39 76 -128 165 -53 51 -83 62 -61 20 17 -32 -5 -13 -35 31 -16 23 -25 45 -20
52 4 7 3 10 -3 6 -6 -4 -14 0 -17 9 -4 10 -2 13 6 8 22 -14 -4 16 -55 64 -121
113 -136 128 -142 152 -4 16 -3 20 3 12 6 -9 12 -2 20 24 9 29 8 41 -2 55 -7
11 -15 17 -18 14 -3 -3 -5 2 -4 12 1 10 13 31 29 47 15 16 27 38 28 50 0 12 2
35 5 51 2 17 -1 40 -8 53 -9 18 -9 33 2 70 27 90 7 196 -46 244 -20 17 -129
68 -147 68 -7 0 -1 -7 11 -16z m-50 -252 c2 -7 -3 -12 -12 -12 -9 0 -16 7 -16
16 0 17 22 14 28 -4z m50 7 c-2 -6 -8 -10 -13 -10 -5 0 -11 4 -13 10 -2 6 4
11 13 11 9 0 15 -5 13 -11z m-178 -14 c0 -8 -4 -15 -10 -15 -5 0 -10 7 -10 15
0 8 5 15 10 15 6 0 10 -7 10 -15z m123 -254 c-9 -12 -25 20 -18 36 7 16 9 15
15 -7 4 -14 5 -27 3 -29z m42 39 c-3 -5 -10 -10 -16 -10 -5 0 -9 5 -9 10 0 6
7 10 16 10 8 0 12 -4 9 -10z m-165 -10 c0 -5 -5 -10 -11 -10 -5 0 -7 5 -4 10
3 6 8 10 11 10 2 0 4 -4 4 -10z m177 -16 c-3 -3 -12 -4 -19 -1 -8 3 -5 6 6 6
11 1 17 -2 13 -5z m-182 -14 c3 -5 1 -10 -4 -10 -6 0 -11 5 -11 10 0 6 2 10 4
10 3 0 8 -4 11 -10z m-308 -112 c-3 -7 -5 -2 -5 12 0 14 2 19 5 13 2 -7 2 -19
0 -25z m610 0 c-3 -7 -5 -2 -5 12 0 14 2 19 5 13 2 -7 2 -19 0 -25z m-139
-181 c2 -10 -3 -17 -12 -17 -10 0 -16 9 -16 21 0 24 23 21 28 -4z m-48 -18 c0
-17 -4 -28 -10 -24 -5 3 -10 17 -10 31 0 13 5 24 10 24 6 0 10 -14 10 -31z
m-100 1 c0 -5 -7 -10 -15 -10 -8 0 -15 5 -15 10 0 6 7 10 15 10 8 0 15 -4 15
-10z m-460 -182 c0 -22 -34 -79 -52 -89 -19 -10 -19 -10 -1 18 17 27 17 28 -1
13 -27 -21 -49 -22 -42 -2 5 13 2 12 -9 -2 -19 -25 -19 -47 0 -40 8 4 15 1 15
-5 0 -6 -9 -11 -20 -11 -40 0 -14 66 45 119 29 25 40 30 51 20 8 -6 14 -16 14
-21z m836 -30 l19 -23 -25 20 c-14 11 -27 21 -29 22 -2 2 0 3 6 3 5 0 18 -10
29 -22z m-13 -20 c31 -29 48 -79 38 -115 -6 -23 -13 -29 -44 -31 -30 -3 -43 2
-67 27 -74 73 -3 188 73 119z m-438 -63 c23 -53 -1 -99 -64 -126 -33 -13 -79
6 -87 36 -13 50 48 125 102 125 31 0 37 -4 49 -35z m171 -27 c-15 -10 -16 -6
-9 22 6 22 7 22 13 4 4 -10 2 -22 -4 -26z m14 -44 c0 -2 -7 -4 -15 -4 -8 0
-15 4 -15 10 0 5 7 7 15 4 8 -4 15 -8 15 -10z m604 -151 c3 -10 17 -60 31
-112 15 -52 33 -107 41 -123 8 -16 14 -39 12 -50 -2 -17 -25 1 -120 95 -65 64
-118 119 -118 121 0 3 17 10 38 15 21 6 51 24 67 41 33 35 42 37 49 13z m-349
-73 c-3 -5 -16 -10 -28 -10 -18 0 -19 2 -7 10 20 13 43 13 35 0z m-1015 -15
c-14 -17 -139 -118 -160 -130 -22 -12 -13 -4 65 60 39 31 74 63 78 71 4 8 13
14 19 14 7 0 6 -5 -2 -15z m928 0 c-11 -11 -68 -17 -68 -7 0 6 15 12 33 14 33
3 44 1 35 -7z m32 5 c0 -5 -2 -10 -4 -10 -3 0 -8 5 -11 10 -3 6 -1 10 4 10 6
0 11 -4 11 -10z m-300 -25 c0 -8 -4 -15 -10 -15 -5 0 -10 7 -10 15 0 8 5 15
10 15 6 0 10 -7 10 -15z m390 1 c0 -3 -4 -8 -10 -11 -5 -3 -10 -1 -10 4 0 6 5
11 10 11 6 0 10 -2 10 -4z m-1140 -21 c-7 -9 -15 -13 -17 -11 -7 7 7 26 19 26
6 0 6 -6 -2 -15z m477 -5 c51 -5 97 -12 103 -15 14 -9 12 -25 -3 -25 -12 0
-100 -108 -163 -200 -17 -25 -39 -51 -47 -59 -21 -17 -25 0 -31 149 -3 63 -8
128 -12 143 -6 28 -6 28 27 22 19 -3 76 -10 126 -15z m622 -12 c0 -18 -4 -55
-9 -83 -5 -27 -14 -90 -20 -140 -6 -49 -16 -108 -21 -129 l-11 -39 -18 28
c-10 15 -16 35 -12 43 3 10 1 13 -6 8 -8 -5 -12 0 -12 13 0 11 -4 23 -10 26
-5 3 -10 11 -10 16 0 6 5 7 10 4 15 -9 12 18 -5 42 -9 12 -22 20 -30 17 -9 -4
-21 9 -36 38 -12 24 -35 62 -51 86 -39 57 -30 67 75 76 45 4 94 8 109 9 15 1
30 6 34 10 15 15 24 6 23 -25z m323 -110 c71 -69 58 -71 -14 -2 -35 32 -82 76
-105 96 -24 21 -43 41 -43 44 0 8 101 -78 162 -138z m-687 102 c3 -5 1 -10 -4
-10 -6 0 -11 5 -11 10 0 6 2 10 4 10 3 0 8 -4 11 -10z m95 0 c0 -5 -4 -10 -10
-10 -5 0 -10 5 -10 10 0 6 5 10 10 10 6 0 10 -4 10 -10z m-123 -22 c-3 -8 -6
-5 -6 6 -1 11 2 17 5 13 3 -3 4 -12 1 -19z m-1076 -25 c-20 -21 -37 -42 -38
-48 -1 -5 -7 -11 -15 -13 -9 -2 -8 0 2 7 8 6 11 11 5 11 -5 0 9 18 30 40 21
22 42 40 46 40 4 0 -9 -17 -30 -37z m1049 -28 c-7 -9 -15 -13 -17 -11 -6 6 20
36 26 30 2 -2 -2 -10 -9 -19z m1265 -83 c-7 -7 -34 18 -47 42 -8 16 -3 14 21
-8 17 -16 29 -32 26 -34z m-1315 34 c0 -2 -8 -10 -17 -17 -16 -13 -17 -12 -4
4 13 16 21 21 21 13z m-1090 -30 c0 -2 -8 -10 -17 -17 -16 -13 -17 -12 -4 4
13 16 21 21 21 13z m1430 -67 c0 -5 -4 -9 -10 -9 -5 0 -10 7 -10 16 0 8 5 12
10 9 6 -3 10 -10 10 -16z m605 -28 c-3 -3 -18 8 -33 23 l-27 29 32 -23 c18
-13 30 -26 28 -29z m-1015 35 c0 -3 -4 -8 -10 -11 -5 -3 -10 -1 -10 4 0 6 5
11 10 11 6 0 10 -2 10 -4z m-30 -36 c0 -5 -5 -10 -11 -10 -5 0 -7 5 -4 10 3 6
8 10 11 10 2 0 4 -4 4 -10z m1126 -61 c11 -19 -29 7 -51 32 l-20 23 32 -23
c18 -12 35 -27 39 -32z m-1156 21 c0 -5 -5 -10 -11 -10 -5 0 -7 5 -4 10 3 6 8
10 11 10 2 0 4 -4 4 -10z m891 -22 c11 -20 11 -20 -15 -2 -28 21 -34 37 -11
28 9 -4 20 -15 26 -26z m37 -53 c-3 -3 -9 2 -12 12 -6 14 -5 15 5 6 7 -7 10
-15 7 -18z m-844 -139 c-3 -15 -8 -25 -11 -23 -2 3 -1 17 3 31 3 15 8 25 11
23 2 -3 1 -17 -3 -31z m266 0 c0 -3 -4 -8 -10 -11 -5 -3 -10 -1 -10 4 0 6 5
11 10 11 6 0 10 -2 10 -4z m715 -14 c-3 -3 -11 0 -18 7 -9 10 -8 11 6 5 10 -3
15 -9 12 -12z m-777 -23 c-9 -5 -24 -16 -33 -25 -8 -8 -15 -11 -15 -5 0 13 51
53 59 45 3 -3 -2 -10 -11 -15z m-1618 -32 c0 -2 -15 -16 -32 -33 l-33 -29 29
33 c28 30 36 37 36 29z m2150 -58 c0 -4 -7 -6 -15 -3 -8 4 -15 10 -15 15 0 4
7 6 15 3 8 -4 15 -10 15 -15z m-486 -18 c-2 -3 -12 3 -22 13 -16 17 -16 18 5
5 12 -7 20 -15 17 -18z m208 -3 c-7 -7 -12 -8 -12 -2 0 14 12 26 19 19 2 -3
-1 -11 -7 -17z m261 -95 c37 -25 67 -48 67 -50 0 -11 -132 81 -172 119 l-33
32 35 -27 c19 -15 65 -48 103 -74z m-2198 60 c-19 -38 -74 -101 -75 -85 0 6 5
12 11 12 5 0 8 4 5 9 -5 8 14 36 50 74 24 23 25 22 9 -10z m1425 7 c0 -5 -2
-10 -4 -10 -3 0 -8 5 -11 10 -3 6 -1 10 4 10 6 0 11 -4 11 -10z m321 -10 c5 0
9 -4 9 -10 0 -15 -20 -12 -38 7 -16 16 -16 16 1 10 10 -4 23 -7 28 -7z m150
-23 l-24 -22 19 27 c10 14 21 24 23 22 3 -3 -6 -15 -18 -27z m-444 1 c-3 -8
-6 -5 -6 6 -1 11 2 17 5 13 3 -3 4 -12 1 -19z m-1567 -48 c-6 -11 -13 -20 -16
-20 -2 0 0 9 6 20 6 11 13 20 16 20 2 0 0 -9 -6 -20z m2090 -24 c0 -3 -4 -8
-10 -11 -5 -3 -10 -1 -10 4 0 6 5 11 10 11 6 0 10 -2 10 -4z m-2119 -37 c-6
-13 -15 -43 -21 -65 -6 -23 -17 -45 -26 -48 -12 -5 -14 -1 -8 17 14 45 54 130
60 125 2 -3 0 -16 -5 -29z m2019 21 c0 -5 -5 -10 -11 -10 -5 0 -7 5 -4 10 3 6
8 10 11 10 2 0 4 -4 4 -10z m-96 -72 c-82 -109 -85 -103 -5 10 25 34 47 60 49
57 2 -2 -17 -32 -44 -67z m341 34 c-3 -3 -11 0 -18 7 -9 10 -8 11 6 5 10 -3
15 -9 12 -12z m242 -34 c17 -19 15 -19 -19 2 -21 12 -38 23 -38 25 0 10 41
-10 57 -27z m-258 -9 c-16 -10 -23 -4 -14 10 3 6 11 8 17 5 6 -4 5 -9 -3 -15z
m196 1 c3 -6 -1 -7 -9 -4 -18 7 -21 14 -7 14 6 0 13 -4 16 -10z m-446 -82
c-28 -40 -63 -90 -77 -111 -14 -20 -27 -35 -30 -33 -5 6 18 45 40 67 8 8 29
37 48 64 35 52 61 85 67 85 2 0 -20 -33 -48 -72z m306 54 c-3 -3 -11 0 -18 7
-9 10 -8 11 6 5 10 -3 15 -9 12 -12z m265 -14 c0 -12 -6 -9 -26 13 -19 22 -19
22 4 8 12 -8 22 -17 22 -21z m760 -29 c29 -40 40 -119 17 -119 -28 0 -77 71
-77 112 0 49 26 51 60 7z m-681 -39 c5 0 16 -12 26 -26 l17 -26 -32 18 c-17
11 -39 31 -48 46 -8 15 -19 25 -22 23 -4 -2 -7 3 -7 12 0 11 9 6 29 -15 15
-18 32 -32 37 -32z m972 37 c-10 -9 -11 -8 -5 6 3 10 9 15 12 12 3 -3 0 -11
-7 -18z m-1076 4 c3 -5 2 -12 -3 -15 -5 -3 -9 1 -9 9 0 17 3 19 12 6z m-1490
-11 c3 -5 1 -10 -4 -10 -6 0 -11 5 -11 10 0 6 2 10 4 10 3 0 8 -4 11 -10z
m1345 -14 c0 -2 -7 -7 -16 -10 -8 -3 -12 -2 -9 4 6 10 25 14 25 6z m84 -17
c-3 -5 -10 -7 -15 -3 -5 3 -7 10 -3 15 3 5 10 7 15 3 5 -3 7 -10 3 -15z m-170
-4 c3 -8 1 -15 -4 -15 -6 0 -10 7 -10 15 0 8 2 15 4 15 2 0 6 -7 10 -15z m796
-16 c0 -6 -4 -7 -10 -4 -5 3 -10 11 -10 16 0 6 5 7 10 4 6 -3 10 -11 10 -16z
m-1315 -19 c-16 -16 -33 -30 -39 -30 -9 0 53 59 63 60 3 0 -8 -13 -24 -30z
m738 -21 c26 -30 15 -34 -13 -4 -13 14 -19 25 -14 25 5 0 18 -9 27 -21z m-338
-8 c-3 -6 -11 -11 -17 -11 -6 0 -6 6 2 15 14 17 26 13 15 -4z m79 3 c4 -9 4
-19 2 -21 -8 -8 -26 8 -26 23 0 19 16 18 24 -2z m-134 -4 c0 -5 -4 -10 -10
-10 -5 0 -10 5 -10 10 0 6 5 10 10 10 6 0 10 -4 10 -10z m90 6 c0 -2 -8 -10
-17 -17 -16 -13 -17 -12 -4 4 13 16 21 21 21 13z m90 -10 c0 -3 -4 -8 -10 -11
-5 -3 -10 -1 -10 4 0 6 5 11 10 11 6 0 10 -2 10 -4z m95 -44 c-7 -8 -35 7 -35
18 0 6 7 6 20 -2 10 -7 17 -14 15 -16z m50 18 c3 -5 1 -10 -4 -10 -6 0 -11 5
-11 10 0 6 2 10 4 10 3 0 8 -4 11 -10z m112 3 c-4 -3 -1 -13 6 -22 11 -14 10
-14 -5 -2 -16 12 -16 31 -1 31 4 0 3 -3 0 -7z m-1397 -23 c0 -11 -7 -20 -15
-20 -13 0 -13 3 -3 20 7 11 14 20 15 20 2 0 3 -9 3 -20z m130 10 c0 -5 -2 -10
-4 -10 -3 0 -8 5 -11 10 -3 6 -1 10 4 10 6 0 11 -4 11 -10z m760 -10 c0 -5 -2
-10 -4 -10 -3 0 -8 5 -11 10 -3 6 -1 10 4 10 6 0 11 -4 11 -10z m240 0 c0 -5
-2 -10 -4 -10 -3 0 -8 5 -11 10 -3 6 -1 10 4 10 6 0 11 -4 11 -10z m-1875 -9
c-3 -5 -1 -13 5 -16 6 -4 8 -16 4 -28 -6 -20 -5 -20 10 -8 15 13 16 12 6 -15
-24 -62 -89 -98 -104 -58 -5 12 -1 14 15 9 16 -5 20 -3 17 6 -3 8 -13 13 -22
11 -26 -5 -11 35 27 76 29 29 56 44 42 23z m1325 -1 c0 -5 -5 -10 -11 -10 -5
0 -7 5 -4 10 3 6 8 10 11 10 2 0 4 -4 4 -10z m580 0 c0 -5 -2 -10 -4 -10 -3 0
-8 5 -11 10 -3 6 -1 10 4 10 6 0 11 -4 11 -10z m-640 -4 c0 -2 -8 -10 -17 -17
-16 -13 -17 -12 -4 4 13 16 21 21 21 13z m707 -12 c-3 -3 -12 -4 -19 -1 -8 3
-5 6 6 6 11 1 17 -2 13 -5z m208 -4 c-28 -12 -37 -12 -30 0 3 6 16 10 28 9 21
0 21 -1 2 -9z m-755 -25 c-7 -9 -15 -13 -18 -10 -3 2 1 11 8 20 7 9 15 13 18
10 3 -2 -1 -11 -8 -20z m163 11 c4 -10 1 -13 -8 -9 -8 3 -12 9 -9 14 7 12 11
11 17 -5z m317 5 c0 -5 -11 -8 -25 -8 -14 0 -25 3 -25 8 0 5 11 9 25 9 14 0
25 -4 25 -9z m380 -1 c0 -5 -5 -10 -11 -10 -5 0 -7 5 -4 10 3 6 8 10 11 10 2
0 4 -4 4 -10z m-1340 -10 c0 -5 -5 -10 -11 -10 -5 0 -7 5 -4 10 3 6 8 10 11
10 2 0 4 -4 4 -10z m591 -5 c37 -7 35 -16 -2 -14 -21 2 -36 8 -36 15 0 7 4 11
9 8 4 -3 18 -7 29 -9z m89 5 c0 -5 -2 -10 -4 -10 -3 0 -8 5 -11 10 -3 6 -1 10
4 10 6 0 11 -4 11 -10z m495 0 c-11 -5 -29 -8 -40 -8 -16 0 -15 2 5 8 34 11
60 11 35 0z m-428 -6 c-3 -3 -12 -4 -19 -1 -8 3 -5 6 6 6 11 1 17 -2 13 -5z
m158 -25 c-52 -11 -72 -7 -30 6 22 7 45 10 50 6 6 -3 -3 -9 -20 -12z m143 6
c5 -4 -162 -35 -183 -34 l-20 0 20 8 c11 5 41 11 68 15 26 4 47 11 47 16 0 8
57 3 68 -5z m-781 -15 c1 -11 -2 -18 -8 -15 -11 7 -12 35 -1 35 4 0 8 -9 9
-20z m293 -20 c-24 -15 -36 -11 -14 4 10 8 21 12 24 10 2 -3 -2 -9 -10 -14z
m44 -15 c4 -11 -2 -15 -22 -14 -17 1 -20 3 -9 6 9 2 17 9 17 14 0 14 7 11 14
-6z m-364 -10 c7 -9 8 -15 2 -15 -5 0 -12 7 -16 15 -3 8 -4 15 -2 15 2 0 9 -7
16 -15z m167 9 c-3 -3 -12 -4 -19 -1 -8 3 -5 6 6 6 11 1 17 -2 13 -5z m780 0
c-3 -3 -12 -4 -19 -1 -8 3 -5 6 6 6 11 1 17 -2 13 -5z m-757 -19 c-7 -9 -15
-13 -19 -10 -3 3 1 10 9 15 21 14 24 12 10 -5z m-770 -4 c0 -6 -4 -13 -10 -16
-5 -3 -10 1 -10 9 0 9 5 16 10 16 6 0 10 -4 10 -9z m1167 -18 c-3 -3 -11 -2
-17 2 -9 6 -9 10 1 16 14 8 27 -7 16 -18z m414 -20 c13 -17 13 -17 -6 -3 -11
8 -22 16 -24 17 -2 2 0 3 6 3 6 0 17 -8 24 -17z m-13 -18 c16 -13 31 -23 33
-21 3 4 3 -46 0 -81 -2 -18 -71 -54 -92 -48 -36 12 -67 50 -76 95 -5 25 -14
44 -20 43 -5 -1 -10 4 -10 12 0 7 6 11 14 8 7 -3 13 -10 13 -16 0 -6 10 -1 22
11 30 30 78 29 116 -3z m47 16 c3 -5 1 -12 -5 -16 -5 -3 -10 1 -10 9 0 18 6
21 15 7z m152 -17 c-3 -3 -12 -4 -19 -1 -8 3 -5 6 6 6 11 1 17 -2 13 -5z
m-1243 -48 c-3 -21 -8 -35 -11 -32 -2 2 -1 20 3 40 3 21 8 35 11 32 2 -2 1
-20 -3 -40z m444 18 c12 -4 22 -13 22 -20 0 -16 -17 -19 -22 -3 -2 6 -19 14
-38 19 -28 6 -30 8 -10 9 14 0 35 -2 48 -5z m52 -45 c0 -6 -4 -7 -10 -4 -5 3
-10 11 -10 16 0 6 5 7 10 4 6 -3 10 -11 10 -16z m-640 -9 c22 -22 26 -66 9
-103 -22 -49 -93 -64 -131 -30 -32 29 -19 109 21 140 25 19 78 16 101 -7z
m-140 0 c0 -5 -2 -10 -4 -10 -3 0 -8 5 -11 10 -3 6 -1 10 4 10 6 0 11 -4 11
-10z m800 -20 c0 -5 -2 -10 -4 -10 -3 0 -8 5 -11 10 -3 6 -1 10 4 10 6 0 11
-4 11 -10z m-220 -10 c0 -5 -5 -10 -11 -10 -5 0 -7 5 -4 10 3 6 8 10 11 10 2
0 4 -4 4 -10z m437 -26 c-3 -3 -12 -4 -19 -1 -8 3 -5 6 6 6 11 1 17 -2 13 -5z
m-1203 -39 c-4 -8 -8 -15 -10 -15 -2 0 -4 7 -4 15 0 8 4 15 10 15 5 0 7 -7 4
-15z m-124 -5 c0 -5 -5 -10 -11 -10 -5 0 -7 5 -4 10 3 6 8 10 11 10 2 0 4 -4
4 -10z m1535 1 c3 -5 1 -12 -4 -15 -5 -3 -11 1 -15 9 -6 16 9 21 19 6z m-462
-16 c-3 -9 -8 -14 -10 -11 -3 3 -2 9 2 15 9 16 15 13 8 -4z m700 -16 c18 -1
-55 -27 -78 -28 -17 -1 -17 1 -5 9 8 5 26 10 40 10 21 0 22 2 10 11 -12 9 -12
10 3 5 10 -3 24 -6 30 -7z m-804 -20 c-16 -10 -23 -4 -14 10 3 6 11 8 17 5 6
-4 5 -9 -3 -15z m-859 4 c0 -5 -5 -15 -10 -23 -8 -12 -10 -11 -10 8 0 12 5 22
10 22 6 0 10 -3 10 -7z m462 -20 c-3 -16 -7 -22 -10 -15 -4 13 4 42 11 42 2 0
2 -12 -1 -27z m373 -3 c3 -5 1 -10 -4 -10 -6 0 -11 5 -11 10 0 6 2 10 4 10 3
0 8 -4 11 -10z m712 4 c-3 -3 -12 -4 -19 -1 -8 3 -5 6 6 6 11 1 17 -2 13 -5z
m-37 -8 c0 -2 -11 -6 -25 -8 -13 -3 -22 -1 -19 3 5 9 44 13 44 5z m-115 -16
c8 -13 -31 -27 -96 -36 -38 -5 -50 -4 -45 5 4 6 17 11 29 11 12 0 31 7 41 15
23 17 62 20 71 5z m-621 -69 c3 -5 -3 -16 -13 -25 -13 -12 -21 -14 -26 -6 -5
8 -10 8 -20 0 -15 -13 -30 3 -22 24 6 14 73 20 81 7z m166 -1 c0 -5 -12 -10
-27 -9 -25 0 -26 1 -8 9 27 12 35 12 35 0z m711 -26 c-19 -8 -42 -13 -50 -11
-9 2 -1 8 19 14 52 16 70 14 31 -3z m119 -4 c0 -5 0 -13 0 -17 0 -5 -9 -9 -20
-9 -11 -1 -20 2 -20 6 0 5 -10 6 -22 4 -17 -4 -15 -1 7 10 36 17 55 20 55 6z
m-153 -56 c-3 -3 -12 -4 -19 -1 -8 3 -5 6 6 6 11 1 17 -2 13 -5z m-127 -14
c-8 -5 -26 -9 -40 -9 -23 1 -23 2 5 9 43 11 52 11 35 0z m190 -40 c0 -14 -17
-21 -34 -14 -12 5 -14 10 -6 20 12 13 40 9 40 -6z m-362 3 c-10 -2 -26 -2 -35
0 -10 3 -2 5 17 5 19 0 27 -2 18 -5z m-75 -10 c-7 -2 -19 -2 -25 0 -7 3 -2 5
12 5 14 0 19 -2 13 -5z m-503 -13 c0 -5 -9 -10 -20 -10 -11 0 -20 5 -20 10 0
6 9 10 20 10 11 0 20 -4 20 -10z m30 0 c0 -5 -4 -10 -10 -10 -5 0 -10 5 -10
10 0 6 5 10 10 10 6 0 10 -4 10 -10z m247 -16 c-3 -3 -12 -4 -19 -1 -8 3 -5 6
6 6 11 1 17 -2 13 -5z m-1577 -58 c0 -3 -4 -8 -10 -11 -5 -3 -10 -1 -10 4 0 6
5 11 10 11 6 0 10 -2 10 -4z m140 -27 c155 -38 349 -79 470 -98 69 -11 179
-29 245 -41 66 -11 134 -21 150 -21 17 -1 22 -3 13 -6 -36 -9 -17 -25 26 -22
24 2 42 0 39 -5 -16 -25 -596 43 -626 73 -5 5 -16 7 -23 4 -16 -6 -114 16
-114 25 0 4 -10 8 -22 8 -41 3 -159 40 -151 48 5 4 -4 5 -19 1 -21 -5 -29 -3
-34 9 -3 9 -10 16 -16 16 -5 0 -6 -6 -2 -12 6 -9 3 -9 -9 0 -9 8 -22 10 -29 6
-11 -6 -11 -5 0 8 10 13 9 15 -13 10 -20 -3 -24 -1 -19 12 7 17 6 17 134 -15z
m2170 7 c0 -2 -9 -6 -20 -9 -11 -3 -18 -1 -14 4 5 9 34 13 34 5z m17 -32 c-3
-3 -12 -4 -19 -1 -8 3 -5 6 6 6 11 1 17 -2 13 -5z m23 -25 c-224 -79 -621
-143 -940 -151 -185 -4 -260 0 -260 16 0 15 21 26 51 26 11 0 22 7 25 15 7 18
34 20 35 3 0 -10 2 -10 6 0 3 7 24 12 56 11 43 -1 48 -3 27 -10 -17 -6 -5 -7
38 -3 48 4 66 2 78 -10 16 -17 64 -22 64 -8 0 4 -6 14 -12 21 -7 7 -8 11 -3
10 10 -3 168 8 260 18 28 2 56 5 63 6 6 0 12 4 12 9 0 4 8 8 18 8 15 0 15 -2
2 -11 -12 -9 -12 -10 3 -5 10 3 28 6 40 7 21 0 21 1 3 8 -19 7 -19 8 2 13 12
4 22 2 22 -3 0 -5 12 -9 28 -8 l27 1 -25 7 c-24 7 -24 7 9 14 44 9 73 7 41 -3
-18 -5 -8 -7 32 -6 31 1 54 4 52 8 -2 3 12 6 30 5 19 0 33 -5 30 -9 -3 -4 2
-8 11 -8 10 0 15 6 12 13 -6 16 -3 17 96 21 43 2 81 6 84 10 3 3 13 6 22 5 9
0 -9 -9 -39 -20z m-270 -3 c0 -2 -7 -6 -15 -10 -8 -3 -15 -1 -15 4 0 6 7 10
15 10 8 0 15 -2 15 -4z m-2389 -23 c13 -16 12 -17 -3 -4 -10 7 -18 15 -18 17
0 8 8 3 21 -13z m2626 -79 c-3 -3 -12 -4 -19 -1 -8 3 -5 6 6 6 11 1 17 -2 13
-5z m-50 -10 c-3 -3 -12 -4 -19 -1 -8 3 -5 6 6 6 11 1 17 -2 13 -5z m-40 -10
c-3 -3 -12 -4 -19 -1 -8 3 -5 6 6 6 11 1 17 -2 13 -5z m-44 -11 c-7 -2 -19 -2
-25 0 -7 3 -2 5 12 5 14 0 19 -2 13 -5z m-163 -32 c-8 -5 -51 -11 -95 -14
l-80 -6 60 13 c71 16 138 20 115 7z m375 -21 c-3 -5 -14 -10 -23 -10 -15 0
-15 2 -2 10 20 13 33 13 25 0z m-1163 -43 c-31 -7 -46 -7 -54 1 -9 9 1 12 43
11 l54 -1 -43 -11z m231 -4 c-13 -2 -33 -2 -45 0 -13 2 -3 4 22 4 25 0 35 -2
23 -4z m-1018 -43 c72 -15 154 -31 183 -35 l54 -7 -39 -40 c-21 -21 -51 -45
-66 -53 -26 -13 -33 -12 -75 9 -39 20 -214 144 -232 163 -3 3 6 3 20 -1 14 -4
84 -20 155 -36z m1821 -47 c-7 -7 -26 7 -26 19 0 6 6 6 15 -2 9 -7 13 -15 11
-17z m-583 -37 c-41 -36 -131 -96 -146 -96 -5 0 1 9 14 20 13 10 19 19 12 20
-6 0 -25 -14 -42 -31 l-31 -30 -71 38 c-39 21 -85 50 -102 65 l-32 27 95 2
c52 0 136 4 185 8 50 5 105 9 123 9 l32 2 -37 -34z"/>
<path d="M2662 2883 c23 -49 32 -63 39 -63 13 0 -11 58 -28 64 -8 3 -13 3 -11
-1z"/>
<path d="M2802 2710 c0 -14 2 -19 5 -12 2 6 2 18 0 25 -3 6 -5 1 -5 -13z"/>
<path d="M2791 2664 c0 -11 3 -14 6 -6 3 7 2 16 -1 19 -3 4 -6 -2 -5 -13z"/>
<path d="M1110 1798 c-12 -22 -12 -22 6 -6 10 10 15 20 12 24 -4 3 -12 -5 -18
-18z"/>
<path d="M2557 4433 c-12 -12 -7 -22 8 -17 8 4 15 10 15 15 0 11 -14 12 -23 2z"/>
<path d="M1510 3059 c0 -5 5 -7 10 -4 6 3 10 8 10 11 0 2 -4 4 -10 4 -5 0 -10
-5 -10 -11z"/>
<path d="M782 1711 c2 -7 7 -12 11 -12 12 1 9 15 -3 20 -7 2 -11 -2 -8 -8z"/>
</g>
</svg>
